<svg xmlns="http://www.w3.org/2000/svg" height="512pt" version="1.1" viewBox="0 0 512 512.00072" width="512pt">
<g id="surface1">
<path stroke="null" id="svg_6" fill-rule="nonzero" fill="#7BFFCD" d="m258.197619,6.481414c-138.180432,20.657817 -243.213076,123.739141 -243.213076,247.801928c0,124.062797 105.032645,227.144121 243.213076,247.801938c138.180432,-20.657817 243.213064,-123.739141 243.213064,-247.801938c0,-124.062787 -105.032633,-227.144111 -243.213064,-247.801928zm0,0"/>
   <path stroke="null" id="svg_7" fill-rule="nonzero" fill="rgb(100%,36.470588%,36.470588%)" d="m144.042286,368.099004c7.13749,-7.16083 18.456343,-7.763715 26.441771,-1.563633c23.761806,18.45245 53.607013,29.436791 86.019378,29.436791c77.528289,0 140.373202,-62.848797 140.373202,-140.373202l-28.795002,0.124468l48.410445,-48.410455l48.410455,48.410455l-28.203777,-0.124468c0,99.520312 -80.675011,180.195333 -180.195323,180.195333c-41.681381,0 -80.060445,-14.154404 -110.590229,-37.91621c-9.440156,-7.347533 -10.319212,-21.307447 -1.87092,-29.77908zm0,0"/>
   <path stroke="null" id="svg_8" fill-rule="nonzero" fill="rgb(100%,36.470588%,36.470588%)" d="m368.968468,143.098918c-7.13749,7.16083 -18.456333,7.767609 -26.441771,1.563643c-23.761806,-18.448566 -53.607003,-29.436791 -86.023261,-29.436791c-77.524405,0 -140.373202,62.848787 -140.373202,140.373192l28.798895,-0.124468l-48.410455,48.410455l-48.410455,-48.414339l28.199893,0.128352c0,-99.520312 80.678894,-180.195323 180.195323,-180.195323c41.685265,0 80.064338,14.154394 110.590229,37.9162c9.440156,7.351426 10.319212,21.307447 1.874804,29.77908zm0,0"/>
   <path stroke="null" id="svg_9" fill-rule="nonzero" fill="rgb(0%,0%,0%)" d="m256.503435,445.747878c-42.716023,0 -83.071028,-13.835446 -116.704747,-40.012717c-6.748521,-5.254909 -10.929884,-13.166433 -11.462759,-21.7003c-0.536778,-8.53776 2.617721,-16.908264 8.654442,-22.964431c10.618713,-10.64984 27.643669,-11.680589 39.596535,-2.396018c23.038336,17.888448 50.674218,27.344158 79.91653,27.344158c68.547112,0 124.911879,-53.163587 130.038426,-120.415451l-18.417439,0.077788c-4.072459,-0.003883 -7.682044,-2.399901 -9.234007,-6.126178c-1.551972,-3.722384 -0.70014,-8.016546 2.150964,-10.86765l48.410455,-48.410455c3.885756,-3.889639 10.19086,-3.889639 14.0805,0l48.410445,48.410455c2.851114,2.851104 3.699053,7.145266 2.147081,10.871534c-1.551962,3.722394 -5.212112,6.180646 -9.230113,6.122295l-18.46412,-0.081681c-5.216005,100.220453 -88.395939,180.148652 -189.892193,180.148652zm-98.400096,-73.506404c-2.567167,0 -5.103207,0.972407 -7.009138,2.886105c-2.042059,2.049846 -3.068924,4.768705 -2.886105,7.65481c0.182809,2.890008 1.536409,5.461059 3.823512,7.238628c30.101921,23.431188 66.228892,35.8158 104.471827,35.8158c93.872561,0 170.241739,-76.365295 170.241739,-170.237856c0,-2.648838 1.054089,-5.188782 2.932786,-7.055808c1.874804,-1.867027 4.414747,-2.913339 7.067479,-2.901669l4.014108,0.019447l-24.267467,-24.267457l-24.27135,24.27135l4.61312,-0.02334c2.617721,-0.027224 5.192665,1.034642 7.067469,2.901669c1.878697,1.867027 2.932796,4.40697 2.932796,7.055808c0,82.892113 -67.438576,150.326785 -150.330679,150.326785c-33.707613,0 -65.563763,-10.902661 -92.126109,-31.529415c-1.85925,-1.443057 -4.076342,-2.154858 -6.273987,-2.154858zm0,0"/>
   <path stroke="null" id="svg_10" fill-rule="nonzero" fill="rgb(0%,0%,0%)" d="m96.518674,313.838532c-2.54771,0 -5.09543,-0.972407 -7.040245,-2.917222l-48.410455,-48.410455c-2.854998,-2.851104 -3.702937,-7.145266 -2.150974,-10.86765c1.548079,-3.710724 5.173228,-6.126188 9.191219,-6.126188c0.01167,0 0.027234,0 0.042787,0l18.46412,0.081681c1.695888,-32.55628 11.672812,-64.019577 29.106173,-91.566001c2.940562,-4.644227 9.093975,-6.028944 13.738202,-3.088371c4.644237,2.940562 6.028944,9.090091 3.088381,13.738202c-17.196095,27.165242 -26.282293,58.601315 -26.282293,90.916435c0,2.648848 -1.054099,5.184888 -2.932796,7.055808c-1.874804,1.867027 -4.434184,2.870551 -7.067469,2.897785l-4.014108,-0.019457l24.267457,24.267467l24.267457,-24.267467l-4.609217,0.019457c-2.676072,0 -5.192675,-1.030758 -7.071362,-2.897785c-1.874814,-1.87092 -2.928902,-4.40696 -2.928902,-7.055808c0,-82.892103 67.434683,-150.330669 150.326785,-150.330669c33.707613,0 65.563763,10.902651 92.126109,31.529415c4.037448,3.135052 9.747434,2.819987 13.287008,-0.727364c2.042059,-2.049836 3.068924,-4.768695 2.886115,-7.658704c-0.182819,-2.886105 -1.540302,-5.457165 -3.823522,-7.234724c-30.101911,-23.431188 -66.228882,-35.8158 -104.475711,-35.8158c-32.999706,0 -65.007548,9.451826 -92.557865,27.332498c-4.61311,2.99502 -10.778182,1.680324 -13.769319,-2.928902c-2.99502,-4.61311 -1.684218,-10.778192 2.928902,-13.773212c30.786488,-19.981082 66.540053,-30.541454 103.398282,-30.541454c42.719906,0 83.074922,13.835456 116.70863,40.012727c6.748521,5.254899 10.926001,13.166423 11.462769,21.7003c0.536768,8.53776 -2.617731,16.908264 -8.654452,22.964431c-10.618713,10.653724 -27.643669,11.680589 -39.600418,2.396018c-23.038336,-17.888458 -50.670334,-27.344168 -79.912636,-27.344168c-68.547122,0 -124.911889,53.163587 -130.038426,120.415461l18.417439,-0.077798c4.006331,0 7.682034,2.399911 9.234007,6.126188c1.551962,3.722384 0.70013,8.012652 -2.150974,10.86765l-48.410455,48.410455c-1.944815,1.944815 -4.492535,2.917222 -7.040245,2.917222zm0,0"/>
   <path stroke="null" id="svg_11" fill-rule="nonzero" fill="rgb(0%,0%,0%)" d="m126.75284,140.512314c-2.489369,0 -4.978738,-0.925737 -6.911883,-2.78887c-3.955767,-3.819628 -4.068565,-10.120849 -0.248937,-14.076606l0.719577,-0.746811c3.839075,-3.93632 10.140296,-4.014108 14.076606,-0.175033c3.93632,3.839065 4.018001,10.140286 0.178926,14.076596l-0.649576,0.669023c-1.952592,2.026506 -4.558652,3.041701 -7.164713,3.041701zm0,0"/>
   <path stroke="null" id="svg_12" fill-rule="nonzero" fill="rgb(0%,0%,0%)" d="m430.016365,92.720308c-2.555497,0 -5.1071,-0.980184 -7.055808,-2.932786l-0.322841,-0.322841c-3.885746,-3.885746 -3.885746,-10.19085 0,-14.08049c3.889639,-3.885756 10.194744,-3.885756 14.08049,0l0.353958,0.353958c3.877969,3.897416 3.866309,10.198627 -0.031117,14.08049c-1.940931,1.933155 -4.484748,2.901669 -7.024681,2.901669zm0,0"/>
   <path stroke="null" id="svg_13" fill-rule="nonzero" fill="rgb(0%,0%,0%)" d="m256.503435,510.459808c-68.076472,0 -132.076602,-26.511782 -180.21478,-74.646067c-48.134284,-48.138178 -74.646067,-112.138308 -74.646067,-180.21478c0,-68.076472 26.511782,-132.076592 74.646067,-180.21477c87.026796,-87.022912 223.603709,-99.539769 324.746005,-29.755749c4.523652,3.119498 5.659422,9.323474 2.539933,13.847116c-3.123382,4.523652 -9.323465,5.663315 -13.847116,2.539943c-93.230772,-64.322971 -219.130621,-52.778521 -299.358322,27.449179c-91.604905,91.604905 -91.604905,240.659772 0,332.26856c44.3769,44.3769 103.378835,68.815506 166.13428,68.815506c62.759329,0 121.761273,-24.438606 166.13428,-68.815506c78.399568,-78.395684 91.188702,-202.444061 30.409199,-294.959139c-3.01836,-4.593663 -1.738665,-10.766522 2.854998,-13.784882c4.593663,-3.01836 10.766522,-1.742558 13.788776,2.851104c31.700554,48.258763 46.080555,106.661695 40.483367,164.461743c-5.674985,58.589635 -31.758915,113.814739 -73.45585,155.511674c-48.134284,48.138178 -112.138298,74.646067 -180.21477,74.646067zm0,0"/>
</g>
</svg>