<svg viewBox="0 0 512.00036 512" xmlns="http://www.w3.org/2000/svg"><polygon stroke="null" id="svg_10" fill="#FF5D5D" points="117.84591674804688,68.18700408935547 154.5348663330078,90.24177551269531 210.74722290039062,66.94754028320312 221.0997314453125,25.393348693847656 291.6551513671875,25.393348693847656 302.0076904296875,66.94754028320312 358.2193603515625,90.24177551269531 394.9083557128906,68.18700408935547 444.81036376953125,118.08934783935547 422.755859375,154.7780303955078 446.0498352050781,210.9899444580078 487.60406494140625,221.34280395507812 487.60406494140625,291.8979187011719 446.0498352050781,302.2505187988281 422.755859375,358.46282958984375 444.81036376953125,395.1514587402344 394.9083557128906,445.05340576171875 358.2193603515625,422.9986877441406 302.0076904296875,446.2928771972656 291.6551513671875,487.84716796875 221.0997314453125,487.84716796875 210.74722290039062,446.2928771972656 154.5348663330078,422.9986877441406 117.84591674804688,445.05340576171875 67.94392395019531,395.1514587402344 89.9990463256836,358.46282958984375 66.7044677734375,302.2505187988281 25.1502628326416,291.8979187011719 25.1502628326416,221.34280395507812 66.7044677734375,210.9899444580078 89.9990463256836,154.7780303955078 67.94392395019531,118.08934783935547 "/>
  <path stroke="null" id="svg_11" fill="#7BFFCD" d="m337.895495,267.876497l-92.471651,59.270342c-13.718662,8.79377 -31.737666,-1.058399 -31.737666,-17.353929l0,-118.540685c0,-16.29553 18.01662,-26.147699 31.737666,-17.353929l92.471651,59.270342c12.653112,8.109625 12.653112,26.598234 0,34.707858z"/>
  <path stroke="null" id="svg_20" d="m488.684673,197.741147l-29.365241,-7.315551l-13.844283,-33.40706l15.579501,-25.920562c5.540523,-9.214691 4.093337,-21.01933 -3.510247,-28.622914l-49.021687,-49.021687c-7.603583,-7.603583 -19.410565,-9.05077 -28.625256,-3.512589l-25.920562,15.581843l-33.40706,-13.846624l-7.317893,-29.367583c-2.594632,-10.430046 -11.966219,-17.752623 -22.719423,-17.752623l-69.310399,0c-10.753205,0 -20.124791,7.322576 -22.721765,17.757306l-7.317893,29.367583l-33.40706,13.846624l-25.920562,-15.581843c-9.219374,-5.53584 -21.01933,-4.093337 -28.625256,3.512589l-49.021687,49.021687c-7.603583,7.603583 -9.05077,19.408223 -3.510247,28.622914l15.579501,25.920562l-13.844283,33.40706l-29.365241,7.315551c-10.43473,2.599316 -17.757306,11.970902 -17.757306,22.724107l0,69.31274c0,10.753205 7.322576,20.122449 17.757306,22.724107l29.365241,7.315551l13.844283,33.40706l-15.579501,25.920562c-5.540523,9.214691 -4.093337,21.01933 3.510247,28.622914l49.021687,49.021687c7.603583,7.603583 19.408223,9.05077 28.625256,3.512589l25.920562,-15.581843l33.40706,13.846624l7.317893,29.367583c2.596974,10.43473 11.96856,17.757306 22.721765,17.757306l69.310399,0c10.753205,0 20.124791,-7.322576 22.721765,-17.757306l7.317893,-29.367583l33.40706,-13.846624l25.920562,15.581843c9.221716,5.538181 21.021672,4.095678 28.625256,-3.512589l49.021687,-49.021687c7.603583,-7.603583 9.05077,-19.408223 3.510247,-28.622914l-15.579501,-25.920562l13.844283,-33.40706l29.365241,-7.315551c10.43473,-2.599316 17.757306,-11.970902 17.757306,-22.724107l0,-69.317424c-0.002342,-10.753205 -7.324918,-20.124791 -17.759648,-22.724107zm-29.077209,73.73626l-23.063657,5.746595c-7.20549,1.796104 -13.130056,6.898724 -15.972911,13.757639l-22.883344,55.220235c-2.842855,6.861256 -2.264449,14.663887 1.564273,21.028697l12.237859,20.358964l-23.143276,23.140934l-20.356622,-12.237859c-6.364811,-3.824038 -14.169782,-4.404786 -21.028697,-1.561931l-55.220235,22.883344c-6.858915,2.842855 -11.961535,8.769763 -13.757639,15.972911l-5.751278,23.063657l-32.711567,0l-5.746595,-23.063657c-1.796104,-7.203148 -6.898724,-13.130056 -13.757639,-15.972911l-55.220235,-22.883344c-6.863598,-2.845197 -14.66857,-2.262107 -21.028697,1.561931l-20.356622,12.237859l-23.143276,-23.140934l12.237859,-20.358964c3.828722,-6.364811 4.407128,-14.167441 1.564273,-21.028697l-22.883344,-55.220235c-2.842855,-6.858915 -8.767421,-11.961535 -15.972911,-13.757639l-23.065999,-5.746595l0,-32.713909l23.063657,-5.746595c7.20549,-1.796104 13.130056,-6.898724 15.972911,-13.757639l22.883344,-55.220235c2.842855,-6.861256 2.264449,-14.663887 -1.564273,-21.028697l-12.237859,-20.358964l23.143276,-23.140934l20.356622,12.237859c6.364811,3.824038 14.172124,4.40947 21.028697,1.561931l55.220235,-22.883344c6.858915,-2.842855 11.961535,-8.769763 13.757639,-15.972911l5.751278,-23.063657l32.711567,0l5.746595,23.063657c1.796104,7.203148 6.898724,13.130056 13.757639,15.972911l55.220235,22.883344c6.858915,2.842855 14.663887,2.259765 21.028697,-1.561931l20.356622,-12.237859l23.143276,23.140934l-12.237859,20.358964c-3.828722,6.364811 -4.407128,14.167441 -1.564273,21.028697l22.883344,55.220235c2.842855,6.858915 8.767421,11.961535 15.972911,13.757639l23.063657,5.746595l0,32.713909l0.002342,0z"/>
  <path stroke="null" id="svg_21" d="m350.760764,213.099583l-92.474034,-59.272726c-13.682906,-8.772316 -31.04637,-9.375412 -45.313302,-1.57568c-14.262165,7.799733 -23.12268,22.743659 -23.12268,39.001049l0,118.540685c0,16.25739 8.860516,31.201316 23.12268,39.001049c6.662669,3.644802 13.999949,5.454092 21.325309,5.454092c8.355154,0 16.696005,-2.355176 23.987993,-7.029772l92.471651,-59.270342c12.812825,-8.212127 20.46238,-22.200157 20.46238,-37.420601s-7.647171,-29.213242 -20.459996,-37.427753zm-113.234387,90.798236l0,-106.748118l83.272638,53.375251l-83.272638,53.372867z"/>
  </svg>